<svg width="353" height="171" viewBox="0 0 353 171" fill="none" xmlns="http://www.w3.org/2000/svg">
<path d="M12.2803 159.577C12.2803 161.704 11.7529 163.339 10.6982 164.481C9.64355 165.624 8.13184 166.195 6.16309 166.195C4.19434 166.195 2.68262 165.624 1.62793 164.481C0.573242 163.339 0.0458984 161.698 0.0458984 159.56C0.0458984 157.421 0.573242 155.789 1.62793 154.664C2.68848 153.533 4.20605 152.968 6.18066 152.968C8.15527 152.968 9.66406 153.536 10.707 154.673C11.7559 155.81 12.2803 157.444 12.2803 159.577ZM2.90234 159.577C2.90234 161.013 3.1748 162.094 3.71973 162.82C4.26465 163.547 5.0791 163.91 6.16309 163.91C8.33691 163.91 9.42383 162.466 9.42383 159.577C9.42383 156.683 8.34277 155.235 6.18066 155.235C5.09668 155.235 4.2793 155.602 3.72852 156.334C3.17773 157.061 2.90234 158.142 2.90234 159.577ZM17.4982 161.089C17.4982 162.062 17.6564 162.797 17.9728 163.295C18.295 163.793 18.8165 164.042 19.5372 164.042C20.2521 164.042 20.7648 163.796 21.0753 163.304C21.3917 162.806 21.5499 162.067 21.5499 161.089C21.5499 160.116 21.3917 159.387 21.0753 158.9C20.7589 158.414 20.2404 158.171 19.5196 158.171C18.8048 158.171 18.2892 158.414 17.9728 158.9C17.6564 159.381 17.4982 160.11 17.4982 161.089ZM24.2921 161.089C24.2921 162.688 23.8702 163.939 23.0265 164.842C22.1827 165.744 21.0079 166.195 19.5021 166.195C18.5587 166.195 17.7267 165.99 17.006 165.58C16.2853 165.164 15.7316 164.569 15.3448 163.796C14.9581 163.022 14.7648 162.12 14.7648 161.089C14.7648 159.483 15.1837 158.235 16.0216 157.345C16.8595 156.454 18.0372 156.009 19.5548 156.009C20.4982 156.009 21.3302 156.214 22.0509 156.624C22.7716 157.034 23.3253 157.623 23.712 158.391C24.0988 159.158 24.2921 160.058 24.2921 161.089ZM29.2727 161.089C29.2727 162.062 29.4309 162.797 29.7473 163.295C30.0696 163.793 30.5911 164.042 31.3118 164.042C32.0266 164.042 32.5393 163.796 32.8498 163.304C33.1663 162.806 33.3245 162.067 33.3245 161.089C33.3245 160.116 33.1663 159.387 32.8498 158.9C32.5334 158.414 32.0149 158.171 31.2942 158.171C30.5793 158.171 30.0637 158.414 29.7473 158.9C29.4309 159.381 29.2727 160.11 29.2727 161.089ZM36.0666 161.089C36.0666 162.688 35.6448 163.939 34.801 164.842C33.9573 165.744 32.7825 166.195 31.2766 166.195C30.3332 166.195 29.5012 165.99 28.7805 165.58C28.0598 165.164 27.5061 164.569 27.1194 163.796C26.7327 163.022 26.5393 162.12 26.5393 161.089C26.5393 159.483 26.9582 158.235 27.7961 157.345C28.634 156.454 29.8118 156.009 31.3293 156.009C32.2727 156.009 33.1047 156.214 33.8254 156.624C34.5461 157.034 35.0998 157.623 35.4866 158.391C35.8733 159.158 36.0666 160.058 36.0666 161.089ZM44.308 166.195C43.1537 166.195 42.2484 165.776 41.5921 164.938H41.4515C41.5453 165.759 41.5921 166.233 41.5921 166.362V170.344H38.9115V156.193H41.0912L41.4691 157.468H41.5921C42.2191 156.495 43.1478 156.009 44.3783 156.009C45.5384 156.009 46.4466 156.457 47.1029 157.354C47.7591 158.25 48.0873 159.495 48.0873 161.089C48.0873 162.138 47.932 163.049 47.6214 163.822C47.3168 164.596 46.8802 165.185 46.3119 165.589C45.7435 165.993 45.0755 166.195 44.308 166.195ZM43.517 158.153C42.8548 158.153 42.3714 158.358 42.0668 158.769C41.7621 159.173 41.6039 159.844 41.5921 160.781V161.071C41.5921 162.126 41.7474 162.882 42.058 163.339C42.3744 163.796 42.8724 164.024 43.5521 164.024C44.7533 164.024 45.3539 163.034 45.3539 161.054C45.3539 160.087 45.2045 159.363 44.9056 158.883C44.6127 158.396 44.1498 158.153 43.517 158.153ZM57.7876 163.102C57.7876 164.109 57.436 164.877 56.7329 165.404C56.0356 165.932 54.9897 166.195 53.5952 166.195C52.8804 166.195 52.271 166.146 51.7671 166.046C51.2632 165.952 50.7915 165.812 50.352 165.624V163.409C50.8501 163.644 51.4096 163.84 52.0307 163.998C52.6577 164.156 53.2085 164.235 53.6831 164.235C54.6557 164.235 55.1421 163.954 55.1421 163.392C55.1421 163.181 55.0776 163.011 54.9487 162.882C54.8198 162.747 54.5971 162.598 54.2807 162.434C53.9643 162.264 53.5425 162.067 53.0151 161.845C52.2593 161.528 51.7026 161.235 51.3452 160.966C50.9936 160.696 50.7358 160.389 50.5718 160.043C50.4136 159.691 50.3345 159.261 50.3345 158.751C50.3345 157.878 50.6714 157.204 51.3452 156.729C52.0249 156.249 52.9858 156.009 54.228 156.009C55.4116 156.009 56.563 156.267 57.6821 156.782L56.8735 158.716C56.3813 158.505 55.9214 158.332 55.4936 158.197C55.0659 158.062 54.6294 157.995 54.1841 157.995C53.393 157.995 52.9975 158.209 52.9975 158.637C52.9975 158.877 53.1235 159.085 53.3755 159.261C53.6333 159.437 54.1929 159.697 55.0542 160.043C55.8218 160.354 56.3843 160.644 56.7417 160.913C57.0991 161.183 57.3628 161.493 57.5327 161.845C57.7026 162.196 57.7876 162.615 57.7876 163.102ZM63.1373 164.13C62.8326 165.313 62.317 166.717 61.5904 168.34H59.6568C60.0377 166.781 60.3336 165.311 60.5445 163.928H63.0055L63.1373 164.13ZM77.0623 166.195C75.9081 166.195 75.0028 165.776 74.3465 164.938H74.2059C74.2997 165.759 74.3465 166.233 74.3465 166.362V170.344H71.6659V156.193H73.8456L74.2235 157.468H74.3465C74.9735 156.495 75.9022 156.009 77.1327 156.009C78.2928 156.009 79.201 156.457 79.8573 157.354C80.5135 158.25 80.8416 159.495 80.8416 161.089C80.8416 162.138 80.6864 163.049 80.3758 163.822C80.0711 164.596 79.6346 165.185 79.0663 165.589C78.4979 165.993 77.8299 166.195 77.0623 166.195ZM76.2713 158.153C75.6092 158.153 75.1258 158.358 74.8211 158.769C74.5164 159.173 74.3582 159.844 74.3465 160.781V161.071C74.3465 162.126 74.5018 162.882 74.8123 163.339C75.1288 163.796 75.6268 164.024 76.3065 164.024C77.5077 164.024 78.1082 163.034 78.1082 161.054C78.1082 160.087 77.9588 159.363 77.66 158.883C77.367 158.396 76.9041 158.153 76.2713 158.153ZM89.9267 166.02L89.4082 164.684H89.3379C88.8867 165.252 88.4209 165.647 87.9404 165.87C87.4658 166.087 86.8447 166.195 86.0771 166.195C85.1338 166.195 84.3896 165.926 83.8447 165.387C83.3056 164.848 83.0361 164.08 83.0361 163.084C83.0361 162.041 83.3994 161.273 84.1259 160.781C84.8584 160.283 85.9599 160.008 87.4306 159.955L89.1357 159.902V159.472C89.1357 158.476 88.6259 157.978 87.6064 157.978C86.8213 157.978 85.8984 158.215 84.8379 158.689L83.9502 156.879C85.081 156.287 86.3349 155.991 87.7119 155.991C89.0302 155.991 90.041 156.278 90.7441 156.853C91.4472 157.427 91.7988 158.3 91.7988 159.472V166.02H89.9267ZM89.1357 161.467L88.0986 161.502C87.3193 161.525 86.7392 161.666 86.3584 161.924C85.9775 162.182 85.7871 162.574 85.7871 163.102C85.7871 163.857 86.2207 164.235 87.0879 164.235C87.7089 164.235 88.2041 164.057 88.5732 163.699C88.9482 163.342 89.1357 162.867 89.1357 162.275V161.467ZM103.749 156.193V157.556L102.211 157.951C102.492 158.391 102.633 158.883 102.633 159.428C102.633 160.482 102.264 161.306 101.525 161.897C100.793 162.483 99.7735 162.776 98.4669 162.776L97.9835 162.75L97.588 162.706C97.3126 162.917 97.1749 163.151 97.1749 163.409C97.1749 163.796 97.6671 163.989 98.6514 163.989H100.321C101.399 163.989 102.22 164.221 102.782 164.684C103.351 165.146 103.635 165.826 103.635 166.723C103.635 167.871 103.154 168.762 102.193 169.395C101.238 170.027 99.8643 170.344 98.0714 170.344C96.7003 170.344 95.6514 170.104 94.9249 169.623C94.2042 169.148 93.8438 168.48 93.8438 167.619C93.8438 167.027 94.0284 166.532 94.3975 166.134C94.7667 165.735 95.3087 165.451 96.0235 165.281C95.7481 165.164 95.5079 164.974 95.3028 164.71C95.0977 164.44 94.9952 164.156 94.9952 163.857C94.9952 163.482 95.1036 163.172 95.3204 162.926C95.5372 162.674 95.8507 162.428 96.2608 162.188C95.7452 161.965 95.335 161.607 95.0303 161.115C94.7315 160.623 94.5821 160.043 94.5821 159.375C94.5821 158.303 94.9307 157.474 95.628 156.888C96.3253 156.302 97.3214 156.009 98.6163 156.009C98.8917 156.009 99.2169 156.035 99.5919 156.088C99.9727 156.135 100.216 156.17 100.321 156.193H103.749ZM96.1641 167.408C96.1641 167.777 96.3399 168.067 96.6915 168.278C97.0489 168.489 97.547 168.595 98.1856 168.595C99.1466 168.595 99.8995 168.463 100.444 168.199C100.989 167.936 101.262 167.575 101.262 167.118C101.262 166.749 101.101 166.494 100.778 166.354C100.456 166.213 99.9581 166.143 99.2843 166.143H97.8956C97.4034 166.143 96.9903 166.257 96.6563 166.485C96.3282 166.72 96.1641 167.027 96.1641 167.408ZM97.1397 159.41C97.1397 159.943 97.2598 160.365 97.5001 160.676C97.7462 160.986 98.1182 161.142 98.6163 161.142C99.1202 161.142 99.4893 160.986 99.7237 160.676C99.9581 160.365 100.075 159.943 100.075 159.41C100.075 158.227 99.5889 157.635 98.6163 157.635C97.6319 157.635 97.1397 158.227 97.1397 159.41ZM110.074 157.916C109.506 157.916 109.061 158.098 108.738 158.461C108.416 158.818 108.232 159.328 108.185 159.99H111.946C111.935 159.328 111.762 158.818 111.428 158.461C111.094 158.098 110.643 157.916 110.074 157.916ZM110.452 166.195C108.87 166.195 107.634 165.759 106.743 164.886C105.853 164.013 105.407 162.776 105.407 161.177C105.407 159.53 105.818 158.259 106.638 157.362C107.464 156.46 108.604 156.009 110.057 156.009C111.446 156.009 112.527 156.404 113.3 157.195C114.073 157.986 114.46 159.079 114.46 160.474V161.774H108.123C108.153 162.536 108.378 163.131 108.8 163.559C109.222 163.986 109.814 164.2 110.575 164.2C111.167 164.2 111.727 164.139 112.254 164.016C112.781 163.893 113.332 163.696 113.906 163.427V165.501C113.438 165.735 112.937 165.908 112.404 166.02C111.87 166.137 111.22 166.195 110.452 166.195ZM131.646 166.02H128.965V160.28C128.965 159.571 128.839 159.041 128.587 158.689C128.335 158.332 127.934 158.153 127.383 158.153C126.633 158.153 126.091 158.405 125.757 158.909C125.423 159.407 125.256 160.236 125.256 161.396V166.02H122.576V156.193H124.623L124.984 157.45H125.133C125.432 156.976 125.842 156.618 126.364 156.378C126.891 156.132 127.489 156.009 128.157 156.009C129.299 156.009 130.166 156.319 130.758 156.94C131.35 157.556 131.646 158.446 131.646 159.612V166.02ZM137.171 161.089C137.171 162.062 137.33 162.797 137.646 163.295C137.968 163.793 138.49 164.042 139.211 164.042C139.925 164.042 140.438 163.796 140.749 163.304C141.065 162.806 141.223 162.067 141.223 161.089C141.223 160.116 141.065 159.387 140.749 158.9C140.432 158.414 139.914 158.171 139.193 158.171C138.478 158.171 137.962 158.414 137.646 158.9C137.33 159.381 137.171 160.11 137.171 161.089ZM143.965 161.089C143.965 162.688 143.544 163.939 142.7 164.842C141.856 165.744 140.681 166.195 139.175 166.195C138.232 166.195 137.4 165.99 136.679 165.58C135.959 165.164 135.405 164.569 135.018 163.796C134.631 163.022 134.438 162.12 134.438 161.089C134.438 159.483 134.857 158.235 135.695 157.345C136.533 156.454 137.711 156.009 139.228 156.009C140.171 156.009 141.003 156.214 141.724 156.624C142.445 157.034 142.999 157.623 143.385 158.391C143.772 159.158 143.965 160.058 143.965 161.089ZM150.95 164.06C151.419 164.06 151.981 163.957 152.637 163.752V165.747C151.969 166.046 151.149 166.195 150.176 166.195C149.104 166.195 148.322 165.926 147.83 165.387C147.343 164.842 147.1 164.027 147.1 162.943V158.206H145.817V157.072L147.294 156.176L148.067 154.102H149.781V156.193H152.532V158.206H149.781V162.943C149.781 163.324 149.886 163.605 150.097 163.787C150.314 163.969 150.598 164.06 150.95 164.06ZM166 158.206H163.68V166.02H160.999V158.206H159.522V156.914L160.999 156.193V155.473C160.999 154.354 161.274 153.536 161.825 153.021C162.376 152.505 163.258 152.247 164.471 152.247C165.396 152.247 166.22 152.385 166.94 152.66L166.255 154.629C165.716 154.459 165.218 154.374 164.761 154.374C164.38 154.374 164.104 154.488 163.934 154.717C163.765 154.939 163.68 155.227 163.68 155.578V156.193H166V158.206ZM170.313 161.089C170.313 162.062 170.471 162.797 170.787 163.295C171.109 163.793 171.631 164.042 172.352 164.042C173.066 164.042 173.579 163.796 173.89 163.304C174.206 162.806 174.364 162.067 174.364 161.089C174.364 160.116 174.206 159.387 173.89 158.9C173.573 158.414 173.055 158.171 172.334 158.171C171.619 158.171 171.104 158.414 170.787 158.9C170.471 159.381 170.313 160.11 170.313 161.089ZM177.106 161.089C177.106 162.688 176.685 163.939 175.841 164.842C174.997 165.744 173.822 166.195 172.316 166.195C171.373 166.195 170.541 165.99 169.82 165.58C169.1 165.164 168.546 164.569 168.159 163.796C167.773 163.022 167.579 162.12 167.579 161.089C167.579 159.483 167.998 158.235 168.836 157.345C169.674 156.454 170.852 156.009 172.369 156.009C173.313 156.009 174.145 156.214 174.865 156.624C175.586 157.034 176.14 157.623 176.526 158.391C176.913 159.158 177.106 160.058 177.106 161.089ZM186.912 166.02L186.552 164.763H186.411C186.124 165.22 185.717 165.574 185.19 165.826C184.662 166.072 184.062 166.195 183.388 166.195C182.234 166.195 181.363 165.888 180.777 165.272C180.192 164.651 179.899 163.761 179.899 162.601V156.193H182.579V161.933C182.579 162.642 182.705 163.175 182.957 163.532C183.209 163.884 183.611 164.06 184.161 164.06C184.911 164.06 185.453 163.811 185.787 163.312C186.121 162.809 186.288 161.977 186.288 160.816V156.193H188.969V166.02H186.912ZM201.482 166.02H198.801V160.28C198.801 159.571 198.675 159.041 198.423 158.689C198.171 158.332 197.77 158.153 197.219 158.153C196.469 158.153 195.927 158.405 195.593 158.909C195.259 159.407 195.092 160.236 195.092 161.396V166.02H192.411V156.193H194.459L194.82 157.45H194.969C195.268 156.976 195.678 156.618 196.199 156.378C196.727 156.132 197.324 156.009 197.992 156.009C199.135 156.009 200.002 156.319 200.594 156.94C201.186 157.556 201.482 158.446 201.482 159.612V166.02ZM207.983 166.195C206.829 166.195 205.92 165.747 205.258 164.851C204.602 163.954 204.274 162.712 204.274 161.124C204.274 159.513 204.608 158.259 205.276 157.362C205.95 156.46 206.875 156.009 208.053 156.009C209.289 156.009 210.233 156.489 210.883 157.45H210.971C210.836 156.718 210.769 156.064 210.769 155.49V152.344H213.458V166.02H211.402L210.883 164.745H210.769C210.16 165.712 209.231 166.195 207.983 166.195ZM208.923 164.06C209.609 164.06 210.11 163.86 210.426 163.462C210.748 163.063 210.924 162.387 210.954 161.432V161.142C210.954 160.087 210.789 159.331 210.461 158.874C210.139 158.417 209.612 158.188 208.879 158.188C208.282 158.188 207.816 158.443 207.482 158.953C207.154 159.457 206.99 160.192 206.99 161.159C206.99 162.126 207.157 162.853 207.491 163.339C207.825 163.819 208.302 164.06 208.923 164.06Z" fill="url(#paint0_linear)"/>
<path d="M110.426 108.594H85.8164V121.52L76.6367 121.02V108.594H3.19922V102.051L74 1.46484H85.8164V100.195H110.426V108.594ZM76.6367 100.195V59.375C76.6367 39.7135 77.0924 23.2096 78.0039 9.86328H77.2227C75.9206 12.2721 71.9167 18.3919 65.2109 28.2227L14.8203 100.195H76.6367Z" fill="url(#paint1_linear)"/>
<path d="M223.285 73.2422C223.285 97.2278 219.768 115.252 212.733 127.314C213.064 126.795 212.416 127.857 212.733 127.314L151.999 124.52L140.654 124.02C134.544 111.792 131.488 94.8663 131.488 73.2422C131.488 48.3724 135.232 29.9479 142.719 17.9688C150.271 5.98958 161.729 0 177.094 0C192.133 0 203.591 6.21745 211.469 18.6523C219.346 31.0221 223.285 49.2188 223.285 73.2422ZM142.035 73.2422C142.035 95.3776 144.932 111.751 150.727 122.363C151.136 123.108 151.56 123.827 151.999 124.52L200.874 126.785C201.992 125.268 203.017 123.598 203.949 121.777C209.613 110.84 212.445 94.6615 212.445 73.2422C212.445 52.1484 209.613 36.1328 203.949 25.1953C198.35 14.2578 189.398 8.78906 177.094 8.78906C164.789 8.78906 155.87 14.2578 150.336 25.1953C144.802 36.1328 142.035 52.1484 142.035 73.2422Z" fill="url(#paint2_linear)"/>
<path d="M352.941 108.594H328.332V132.52L319.152 132.02V108.594H245.715V102.051L316.516 1.46484H328.332V100.195H352.941V108.594ZM319.152 100.195V59.375C319.152 39.7135 319.608 23.2096 320.52 9.86328H319.738C318.436 12.2721 314.432 18.3919 307.727 28.2227L257.336 100.195H319.152Z" fill="url(#paint3_linear)"/>
<defs>
<linearGradient id="paint0_linear" x1="-1" y1="159.52" x2="305.13" y2="163.858" gradientUnits="userSpaceOnUse">
<stop stop-color="#5E6166"/>
<stop offset="1" stop-color="#C9CACC"/>
</linearGradient>
<linearGradient id="paint1_linear" x1="-1" y1="67.0194" x2="343.889" y2="67.9433" gradientUnits="userSpaceOnUse">
<stop stop-color="#5E6166"/>
<stop offset="1" stop-color="#C9CACC"/>
</linearGradient>
<linearGradient id="paint2_linear" x1="-1" y1="67.0194" x2="343.889" y2="67.9433" gradientUnits="userSpaceOnUse">
<stop stop-color="#5E6166"/>
<stop offset="1" stop-color="#C9CACC"/>
</linearGradient>
<linearGradient id="paint3_linear" x1="-1" y1="67.0194" x2="343.889" y2="67.9433" gradientUnits="userSpaceOnUse">
<stop stop-color="#5E6166"/>
<stop offset="1" stop-color="#C9CACC"/>
</linearGradient>
</defs>
</svg>
