<svg width="28" height="28" viewBox="0 0 28 28" fill="none" xmlns="http://www.w3.org/2000/svg">
<path d="M25.9806 0H2.01938C0.904053 0 0 0.904053 0 2.01938V25.9806C0 27.0959 0.904053 28 2.01938 28H14.957V17.1719H11.3203V12.9336H14.957V9.81448C14.957 6.19742 17.1653 4.22867 20.3918 4.22867C21.9372 4.22867 23.2653 4.34381 23.6523 4.39529V8.17578H21.4275C19.6719 8.17578 19.332 9.00998 19.332 10.2343V12.9336H23.5293L22.9824 17.1719H19.332V28H25.9806C27.0959 28 28 27.0959 28 25.9806V2.01938C28 0.904053 27.0959 0 25.9806 0V0Z" fill="#081A39"/>
</svg>
