<svg width="28" height="28" viewBox="0 0 28 28" fill="none" xmlns="http://www.w3.org/2000/svg">
<path d="M25.6441 0H2.35594C1.05473 0 0 1.05473 0 2.35594V25.6441C0 26.9453 1.05473 28 2.35594 28H25.6441C26.9453 28 28 26.9453 28 25.6441V2.35594C28 1.05473 26.9453 0 25.6441 0ZM9.25372 22.3581H5.27581V10.3904H9.25372V22.3581ZM7.26489 8.75627H7.23897C5.90411 8.75627 5.04079 7.83737 5.04079 6.68893C5.04079 5.51457 5.93053 4.62109 7.29131 4.62109C8.65209 4.62109 9.48949 5.51457 9.51541 6.68893C9.51541 7.83737 8.65209 8.75627 7.26489 8.75627ZM23.5972 22.3581H19.6198V15.9557C19.6198 14.3467 19.0439 13.2493 17.6046 13.2493C16.5057 13.2493 15.8513 13.9895 15.5636 14.7041C15.4585 14.9598 15.4328 15.3172 15.4328 15.6748V22.3581H11.4551C11.4551 22.3581 11.5072 11.5132 11.4551 10.3904H15.4328V12.0849C15.9614 11.2695 16.9072 10.1096 19.0177 10.1096C21.6348 10.1096 23.5972 11.82 23.5972 15.4959V22.3581Z" fill="#081A39"/>
</svg>
