<svg width="28" height="28" viewBox="0 0 28 28" fill="none" xmlns="http://www.w3.org/2000/svg">
<path d="M21.313 8.46884C21.1627 8.0616 20.9229 7.69299 20.6114 7.39043C20.3088 7.0789 19.9405 6.83914 19.533 6.68886C19.2025 6.56051 18.7061 6.40773 17.7916 6.36611C16.8025 6.321 16.5059 6.31128 14.0016 6.31128C11.4972 6.31128 11.2006 6.32075 10.2117 6.36586C9.29724 6.40773 8.80053 6.56051 8.47031 6.68886C8.06282 6.83914 7.69421 7.0789 7.3919 7.39043C7.08037 7.69299 6.84061 8.06135 6.69008 8.46884C6.56173 8.79931 6.40895 9.29602 6.36733 10.2104C6.32222 11.1994 6.3125 11.4959 6.3125 14.0004C6.3125 16.5047 6.32222 16.8012 6.36733 17.7904C6.40895 18.7048 6.56173 19.2013 6.69008 19.5318C6.84061 19.9393 7.08012 20.3076 7.39165 20.6102C7.69421 20.9217 8.06257 21.1615 8.47006 21.3117C8.80053 21.4403 9.29724 21.5931 10.2117 21.6347C11.2006 21.6799 11.4969 21.6893 14.0014 21.6893C16.5061 21.6893 16.8027 21.6799 17.7914 21.6347C18.7058 21.5931 19.2025 21.4403 19.533 21.3117C20.351 20.9962 20.9974 20.3497 21.313 19.5318C21.4413 19.2013 21.5941 18.7048 21.636 17.7904C21.6811 16.8012 21.6905 16.5047 21.6905 14.0004C21.6905 11.4959 21.6811 11.1994 21.636 10.2104C21.5943 9.29602 21.4416 8.79931 21.313 8.46884ZM14.0016 18.8162C11.3416 18.8162 9.18534 16.6602 9.18534 14.0002C9.18534 11.3402 11.3416 9.18412 14.0016 9.18412C16.6614 9.18412 18.8177 11.3402 18.8177 14.0002C18.8177 16.6602 16.6614 18.8162 14.0016 18.8162ZM19.0081 10.1192C18.3865 10.1192 17.8826 9.61528 17.8826 8.99371C17.8826 8.37214 18.3865 7.8682 19.0081 7.8682C19.6297 7.8682 20.1336 8.37214 20.1336 8.99371C20.1334 9.61528 19.6297 10.1192 19.0081 10.1192Z" fill="#081A39"/>
<path d="M17.1257 14C17.1257 15.7266 15.726 17.1263 13.9993 17.1263C12.2727 17.1263 10.873 15.7266 10.873 14C10.873 12.2733 12.2727 10.8737 13.9993 10.8737C15.726 10.8737 17.1257 12.2733 17.1257 14Z" fill="#081A39"/>
<path d="M25.6667 0H2.33333C1.03212 0 0 1.03218 0 2.33339V25.6667C0 26.9679 1.03104 28 2.33225 28H25.6667C26.9679 28 28 26.9679 28 25.6667V2.33333C28 1.03212 26.9679 0 25.6667 0ZM23.3223 17.8668C23.277 18.8652 23.1182 19.5468 22.8864 20.1434C22.3992 21.4033 21.4033 22.3992 20.1434 22.8864C19.547 23.1182 18.8652 23.2767 17.867 23.3223C16.8669 23.3679 16.5473 23.3789 14.0003 23.3789C11.4529 23.3789 11.1336 23.3679 10.1332 23.3223C9.13509 23.2767 8.45321 23.1182 7.85681 22.8864C7.23075 22.6509 6.66401 22.2818 6.19546 21.8045C5.71844 21.3362 5.34933 20.7693 5.11381 20.1434C4.88203 19.547 4.72328 18.8652 4.67792 17.867C4.63181 16.8666 4.62109 16.5471 4.62109 14C4.62109 11.4529 4.63181 11.1334 4.67767 10.1332C4.72303 9.13484 4.88154 8.45321 5.11332 7.85656C5.34884 7.23075 5.71819 6.66376 6.19546 6.19546C6.66376 5.71819 7.23075 5.34908 7.85656 5.11357C8.45321 4.88178 9.13484 4.72328 10.1332 4.67767C11.1334 4.63206 11.4529 4.62109 14 4.62109C16.5471 4.62109 16.8666 4.63206 17.8668 4.67792C18.8652 4.72328 19.5468 4.88178 20.1434 5.11332C20.7692 5.34884 21.3362 5.71819 21.8048 6.19546C22.2818 6.66401 22.6512 7.23075 22.8864 7.85656C23.1185 8.45321 23.277 9.13484 23.3226 10.1332C23.3682 11.1334 23.3789 11.4529 23.3789 14C23.3789 16.5471 23.3682 16.8666 23.3223 17.8668Z" fill="#081A39"/>
</svg>
