<svg width="24" height="24" viewBox="0 0 24 24" fill="none" xmlns="http://www.w3.org/2000/svg">
<path d="M18.2677 7.25851C18.1389 6.90945 17.9334 6.59351 17.6664 6.33417C17.407 6.06714 17.0913 5.86163 16.742 5.73282C16.4587 5.6228 16.0332 5.49185 15.2494 5.45618C14.4016 5.41751 14.1473 5.40918 12.0009 5.40918C9.85416 5.40918 9.59995 5.4173 8.75229 5.45596C7.96851 5.49185 7.54276 5.6228 7.2597 5.73282C6.91043 5.86163 6.59448 6.06714 6.33536 6.33417C6.06833 6.59351 5.86282 6.90924 5.7338 7.25851C5.62378 7.54178 5.49283 7.96753 5.45715 8.75131C5.41849 9.59897 5.41016 9.85318 5.41016 11.9999C5.41016 14.1464 5.41849 14.4006 5.45715 15.2484C5.49283 16.0322 5.62378 16.4578 5.7338 16.741C5.86282 17.0903 6.06812 17.406 6.33514 17.6654C6.59448 17.9324 6.91022 18.1379 7.25949 18.2667C7.54276 18.377 7.96851 18.5079 8.75229 18.5436C9.59995 18.5822 9.85394 18.5904 12.0006 18.5904C14.1476 18.5904 14.4018 18.5822 15.2492 18.5436C16.033 18.5079 16.4587 18.377 16.742 18.2667C17.4431 17.9963 17.9973 17.4421 18.2677 16.741C18.3777 16.4578 18.5087 16.0322 18.5446 15.2484C18.5832 14.4006 18.5913 14.1464 18.5913 11.9999C18.5913 9.85318 18.5832 9.59897 18.5446 8.75131C18.5089 7.96753 18.3779 7.54178 18.2677 7.25851ZM12.0009 16.1277C9.72086 16.1277 7.87259 14.2797 7.87259 11.9997C7.87259 9.71967 9.72086 7.87161 12.0009 7.87161C14.2806 7.87161 16.1289 9.71967 16.1289 11.9997C16.1289 14.2797 14.2806 16.1277 12.0009 16.1277ZM16.2921 8.67313C15.7593 8.67313 15.3274 8.24118 15.3274 7.7084C15.3274 7.17563 15.7593 6.74368 16.2921 6.74368C16.8249 6.74368 17.2568 7.17563 17.2568 7.7084C17.2566 8.24118 16.8249 8.67313 16.2921 8.67313Z" fill="#F1F1F1"/>
<path d="M14.6797 12C14.6797 13.48 13.48 14.6797 12 14.6797C10.52 14.6797 9.32031 13.48 9.32031 12C9.32031 10.52 10.52 9.32031 12 9.32031C13.48 9.32031 14.6797 10.52 14.6797 12Z" fill="#F1F1F1"/>
<path d="M22 0H2C0.884674 0 0 0.884723 0 2.00005V22C0 23.1153 0.883747 24 1.99907 24H22C23.1153 24 24 23.1153 24 22V2C24 0.884674 23.1153 0 22 0ZM19.9906 15.3144C19.9517 16.1701 19.8156 16.7544 19.6169 17.2658C19.1993 18.3457 18.3457 19.1993 17.2658 19.6169C16.7546 19.8156 16.1701 19.9515 15.3146 19.9906C14.4573 20.0297 14.1834 20.0391 12.0002 20.0391C9.81677 20.0391 9.54312 20.0297 8.68564 19.9906C7.83008 19.9515 7.2456 19.8156 6.73441 19.6169C6.19778 19.4151 5.71201 19.0987 5.31039 18.6896C4.90152 18.2882 4.58514 17.8022 4.38327 17.2658C4.1846 16.7546 4.04852 16.1701 4.00964 15.3146C3.97012 14.4571 3.96094 14.1832 3.96094 12C3.96094 9.81677 3.97012 9.54291 4.00943 8.68564C4.04831 7.82987 4.18417 7.2456 4.38284 6.73419C4.58472 6.19778 4.90131 5.71179 5.31039 5.31039C5.71179 4.90131 6.19778 4.58493 6.73419 4.38306C7.2456 4.18439 7.82987 4.04852 8.68564 4.00943C9.54291 3.97034 9.81677 3.96094 12 3.96094C14.1832 3.96094 14.4571 3.97034 15.3144 4.00964C16.1701 4.04852 16.7544 4.18439 17.2658 4.38284C17.8022 4.58472 18.2882 4.90131 18.6898 5.31039C19.0987 5.71201 19.4153 6.19778 19.6169 6.73419C19.8158 7.2456 19.9517 7.82987 19.9908 8.68564C20.0299 9.54291 20.0391 9.81677 20.0391 12C20.0391 14.1832 20.0299 14.4571 19.9906 15.3144Z" fill="#F1F1F1"/>
</svg>
