<svg width="24" height="24" viewBox="0 0 24 24" fill="none" xmlns="http://www.w3.org/2000/svg">
<path d="M21.9806 0H2.01938C0.904053 0 0 0.904053 0 2.01938V21.9806C0 23.0959 0.904053 24 2.01938 24H21.9806C23.0959 24 24 23.0959 24 21.9806V2.01938C24 0.904053 23.0959 0 21.9806 0ZM7.93176 19.1641H4.52213V8.9061H7.93176V19.1641ZM6.22705 7.50537H6.20483C5.06067 7.50537 4.32068 6.71774 4.32068 5.73337C4.32068 4.72678 5.08331 3.96094 6.24969 3.96094C7.41608 3.96094 8.13385 4.72678 8.15607 5.73337C8.15607 6.71774 7.41608 7.50537 6.22705 7.50537ZM20.2262 19.1641H16.817V13.6763C16.817 12.2971 16.3233 11.3566 15.0896 11.3566C14.1478 11.3566 13.5868 11.991 13.3403 12.6035C13.2501 12.8227 13.2281 13.129 13.2281 13.4355V19.1641H9.8187C9.8187 19.1641 9.86334 9.86847 9.8187 8.9061H13.2281V10.3585C13.6812 9.65955 14.4919 8.66534 16.3009 8.66534C18.5441 8.66534 20.2262 10.1314 20.2262 13.2822V19.1641Z" fill="#F1F1F1"/>
</svg>
