<svg width="142" height="21" viewBox="0 0 142 21" fill="none" xmlns="http://www.w3.org/2000/svg">
<path d="M13.4629 20H9.61523L3.4043 9.19922H3.31641C3.4401 11.1068 3.50195 12.4674 3.50195 13.2812V20H0.796875V5.72266H4.61523L10.8164 16.416H10.8848C10.7871 14.5605 10.7383 13.2487 10.7383 12.4805V5.72266H13.4629V20ZM19.2051 14.5215C19.2051 15.6022 19.3809 16.4193 19.7324 16.9727C20.0905 17.526 20.6699 17.8027 21.4707 17.8027C22.265 17.8027 22.8346 17.5293 23.1797 16.9824C23.5312 16.429 23.707 15.6087 23.707 14.5215C23.707 13.4408 23.5312 12.6302 23.1797 12.0898C22.8281 11.5495 22.252 11.2793 21.4512 11.2793C20.6569 11.2793 20.084 11.5495 19.7324 12.0898C19.3809 12.6237 19.2051 13.4342 19.2051 14.5215ZM26.7539 14.5215C26.7539 16.2988 26.2852 17.6888 25.3477 18.6914C24.4102 19.694 23.1048 20.1953 21.4316 20.1953C20.3835 20.1953 19.459 19.9674 18.6582 19.5117C17.8574 19.0495 17.2422 18.3887 16.8125 17.5293C16.3828 16.6699 16.168 15.6673 16.168 14.5215C16.168 12.7376 16.6335 11.3509 17.5645 10.3613C18.4954 9.37174 19.804 8.87695 21.4902 8.87695C22.5384 8.87695 23.4629 9.10482 24.2637 9.56055C25.0645 10.0163 25.6797 10.6706 26.1094 11.5234C26.5391 12.3763 26.7539 13.3757 26.7539 14.5215ZM35.3086 8.87695C35.7122 8.87695 36.0475 8.90625 36.3145 8.96484L36.0898 11.7578C35.849 11.6927 35.556 11.6602 35.2109 11.6602C34.2604 11.6602 33.5182 11.9043 32.9844 12.3926C32.457 12.8809 32.1934 13.5645 32.1934 14.4434V20H29.2148V9.08203H31.4707L31.9102 10.918H32.0566C32.3952 10.306 32.8509 9.81445 33.4238 9.44336C34.0033 9.06576 34.6315 8.87695 35.3086 8.87695ZM42.8965 17.8223C43.4173 17.8223 44.0423 17.7083 44.7715 17.4805V19.6973C44.0293 20.0293 43.1178 20.1953 42.0371 20.1953C40.8457 20.1953 39.9766 19.8958 39.4297 19.2969C38.8893 18.6914 38.6191 17.7865 38.6191 16.582V11.3184H37.1934V10.0586L38.834 9.0625L39.6934 6.75781H41.5977V9.08203H44.6543V11.3184H41.5977V16.582C41.5977 17.0052 41.7148 17.3177 41.9492 17.5195C42.1901 17.7214 42.5059 17.8223 42.8965 17.8223ZM57.0664 20H54.0879V13.623C54.0879 12.0475 53.502 11.2598 52.3301 11.2598C51.4967 11.2598 50.8945 11.543 50.5234 12.1094C50.1523 12.6758 49.9668 13.5938 49.9668 14.8633V20H46.9883V4.80469H49.9668V7.90039C49.9668 8.14128 49.944 8.70768 49.8984 9.59961L49.8301 10.4785H49.9863C50.6504 9.41081 51.7051 8.87695 53.1504 8.87695C54.4329 8.87695 55.4062 9.22201 56.0703 9.91211C56.7344 10.6022 57.0664 11.5918 57.0664 12.8809V20ZM69.9082 20H66.9297V13.623C66.9297 12.8353 66.7962 12.2461 66.5293 11.8555C66.2689 11.4583 65.8555 11.2598 65.2891 11.2598C64.5273 11.2598 63.974 11.5397 63.6289 12.0996C63.2839 12.6595 63.1113 13.5807 63.1113 14.8633V20H60.1328V9.08203H62.4082L62.8086 10.4785H62.9746C63.2676 9.97721 63.6908 9.58659 64.2441 9.30664C64.7975 9.02018 65.4323 8.87695 66.1484 8.87695C67.7826 8.87695 68.8893 9.41081 69.4688 10.4785H69.7324C70.0254 9.9707 70.4551 9.57682 71.0215 9.29688C71.5944 9.01693 72.2389 8.87695 72.9551 8.87695C74.1921 8.87695 75.1263 9.19596 75.7578 9.83398C76.3958 10.4655 76.7148 11.4811 76.7148 12.8809V20H73.7266V13.623C73.7266 12.8353 73.5931 12.2461 73.3262 11.8555C73.0658 11.4583 72.6523 11.2598 72.0859 11.2598C71.3568 11.2598 70.8099 11.5202 70.4453 12.041C70.0872 12.5618 69.9082 13.3887 69.9082 14.5215V20ZM86.7148 20L86.1387 18.5156H86.0605C85.5592 19.1471 85.0417 19.5866 84.5078 19.834C83.9805 20.0749 83.2904 20.1953 82.4375 20.1953C81.3893 20.1953 80.5625 19.8958 79.957 19.2969C79.3581 18.6979 79.0586 17.8451 79.0586 16.7383C79.0586 15.5794 79.4622 14.7266 80.2695 14.1797C81.0833 13.6263 82.3073 13.3203 83.9414 13.2617L85.8359 13.2031V12.7246C85.8359 11.6178 85.2695 11.0645 84.1367 11.0645C83.2643 11.0645 82.2389 11.3281 81.0605 11.8555L80.0742 9.84375C81.3307 9.1862 82.724 8.85742 84.2539 8.85742C85.7188 8.85742 86.8418 9.17643 87.623 9.81445C88.4043 10.4525 88.7949 11.4225 88.7949 12.7246V20H86.7148ZM85.8359 14.9414L84.6836 14.9805C83.8177 15.0065 83.1732 15.1628 82.75 15.4492C82.3268 15.7357 82.1152 16.1719 82.1152 16.7578C82.1152 17.5977 82.597 18.0176 83.5605 18.0176C84.2507 18.0176 84.8008 17.819 85.2109 17.4219C85.6276 17.0247 85.8359 16.4974 85.8359 15.8398V14.9414ZM101.949 20H98.9707V13.623C98.9707 12.8353 98.8307 12.2461 98.5508 11.8555C98.2708 11.4583 97.8249 11.2598 97.2129 11.2598C96.3796 11.2598 95.7773 11.5397 95.4062 12.0996C95.0352 12.653 94.8496 13.5742 94.8496 14.8633V20H91.8711V9.08203H94.1465L94.5469 10.4785H94.7129C95.0449 9.95117 95.5007 9.55404 96.0801 9.28711C96.666 9.01367 97.3301 8.87695 98.0723 8.87695C99.3418 8.87695 100.305 9.22201 100.963 9.91211C101.62 10.5957 101.949 11.5853 101.949 12.8809V20Z" fill="white"/>
<path d="M122.156 4.25887L120.636 0.00373861H134.44C134.44 0.00373861 141.826 -0.377211 141.826 6.55176C141.826 10.5122 139.056 11.9282 139.056 11.9282L142 20H136.769L134.056 13.0351C134.056 13.0351 133.935 13.0541 133.579 13.071C132.854 13.1055 131.286 13.0998 131.286 13.0998L132.95 8.83027H134.44C134.44 8.83027 136.856 8.84465 136.856 6.55176C136.856 4.25887 134.454 4.25887 134.454 4.25887H122.156Z" fill="url(#paint0_linear)"/>
<path d="M116.513 0.00373885H111L118.799 20H124.463L128.797 8.83027H123.516L121.628 14.0773L116.513 0.00373885Z" fill="url(#paint1_linear)"/>
<defs>
<linearGradient id="paint0_linear" x1="111" y1="0" x2="139.55" y2="17.2344" gradientUnits="userSpaceOnUse">
<stop stop-color="#1A52FB"/>
<stop offset="0.557292" stop-color="#B67FD3"/>
<stop offset="1" stop-color="#FEBED9"/>
</linearGradient>
<linearGradient id="paint1_linear" x1="111" y1="0" x2="139.55" y2="17.2344" gradientUnits="userSpaceOnUse">
<stop stop-color="#1A52FB"/>
<stop offset="0.557292" stop-color="#B67FD3"/>
<stop offset="1" stop-color="#FEBED9"/>
</linearGradient>
</defs>
</svg>
